<svg xmlns="http://www.w3.org/2000/svg" aria-hidden="true" style="position:absolute;width:0;height:0;overflow:hidden"><defs><symbol id="icon-close" viewBox="0 0 32 32"><path fill="#20c05b" d="m8.533 25.333-1.867-1.867 7.467-7.467-7.467-7.467 1.867-1.867L16 14.132l7.467-7.467 1.867 1.867-7.467 7.467 7.467 7.467-1.867 1.867L16 17.866z" style="fill:var(--color1, #20c05b)"/></symbol><symbol id="icon-dollar" viewBox="0 0 32 32"><path fill="none" stroke="#20c05b" stroke-width="1.091" d="M16 29.333c7.364 0 13.333-5.97 13.333-13.333S23.363 2.667 16 2.667 2.667 8.637 2.667 16 8.637 29.333 16 29.333z" style="stroke:var(--color1, #20c05b)"/><path fill="none" stroke="#20c05b" stroke-linecap="round" stroke-width="1.091" d="M16 8v16m4-11.333c0-1.84-1.791-3.333-4-3.333s-4 1.493-4 3.333S13.791 16 16 16s4 1.493 4 3.333-1.791 3.333-4 3.333-4-1.493-4-3.333" style="stroke:var(--color1, #20c05b)"/></symbol><symbol id="icon-menu" viewBox="0 0 32 32"><path d="M4 24v-2h24v2zm0-7v-2h24v2zm0-7V8h24v2z"/></symbol></defs></svg>