<svg width="44" height="44" viewBox="0 0 44 44" fill="none" xmlns="http://www.w3.org/2000/svg">
<path d="M22.0001 40.3333C32.1253 40.3333 40.3334 32.1252 40.3334 22C40.3334 11.8747 32.1253 3.66663 22.0001 3.66663C11.8749 3.66663 3.66675 11.8747 3.66675 22C3.66675 32.1252 11.8749 40.3333 22.0001 40.3333Z" stroke="#20C05B" stroke-width="1.5"/>
<path d="M22 11V33M27.5 17.4167C27.5 14.8867 25.0378 12.8333 22 12.8333C18.9622 12.8333 16.5 14.8867 16.5 17.4167C16.5 19.9467 18.9622 22 22 22C25.0378 22 27.5 24.0533 27.5 26.5833C27.5 29.1133 25.0378 31.1667 22 31.1667C18.9622 31.1667 16.5 29.1133 16.5 26.5833" stroke="#20C05B" stroke-width="1.5" stroke-linecap="round"/>
</svg>
