<svg aria-hidden="true" style="position: absolute; width: 0; height: 0; overflow: hidden;" version="1.1" xmlns="http://www.w3.org/2000/svg" xmlns:xlink="http://www.w3.org/1999/xlink">
<defs>
<symbol id="icon-close" viewBox="0 0 32 32">
<path fill="#20c05b" style="fill: var(--color1, #20c05b)" d="M8.533 25.333l-1.867-1.867 7.467-7.467-7.467-7.467 1.867-1.867 7.467 7.467 7.467-7.467 1.867 1.867-7.467 7.467 7.467 7.467-1.867 1.867-7.467-7.467-7.467 7.467z"></path>
</symbol>
<symbol id="icon-dollar" viewBox="0 0 32 32">
<path fill="none" stroke="#20c05b" style="stroke: var(--color1, #20c05b)" stroke-linejoin="miter" stroke-linecap="butt" stroke-miterlimit="4" stroke-width="1.0909" d="M16 29.333c7.364 0 13.333-5.97 13.333-13.333s-5.97-13.333-13.333-13.333-13.333 5.97-13.333 13.333c0 7.364 5.97 13.333 13.333 13.333z"></path>
<path fill="none" stroke="#20c05b" style="stroke: var(--color1, #20c05b)" stroke-linejoin="miter" stroke-linecap="round" stroke-miterlimit="4" stroke-width="1.0909" d="M16 8v16M20 12.667c0-1.84-1.791-3.333-4-3.333s-4 1.493-4 3.333c0 1.84 1.791 3.333 4 3.333s4 1.493 4 3.333c0 1.84-1.791 3.333-4 3.333s-4-1.493-4-3.333"></path>
</symbol>
<symbol id="icon-menu" viewBox="0 0 32 32">
<path d="M4 24v-2h24v2h-24zM4 17v-2h24v2h-24zM4 10v-2h24v2h-24z"></path>
</symbol>
</defs>
</svg>
